PathFileType	4	(X/Y/Z)	D:\TRACE\spotREDO_2-26-24\spot_justArm_Motion_2_5-v60.trc
DataRate	CameraRate	NumFrames	NumMarkers	Units	OrigDataRate	OrigDataStartFrame	OrigNumFrames
100.00	100.00	      17	9	mm	100.00	1751	      7000
Frame#	Time	front left toe			Front right toe			aft left toe			aft right toe			Arm			FL body			FR body			AL Body			AR Body			
		X1	Y1	Z1	X2	Y2	Z2	X3	Y3	Z3	X4	Y4	Z4	X5	Y5	Z5	X6	Y6	Z6	X7	Y7	Z7	X8	Y8	Z8	X9	Y9	Z9	

1751	17.500	-216.12436	28.39554	-114.62617	207.94572	30.55954	-120.10113	-252.49161	-9.78951	475.29562	174.90915	-2.49464	451.48071	2.67811	678.10931	-805.56628	-81.92173	540.99628	-197.16447	73.66718	542.28778	-190.08192	-130.56467	559.56610	684.83740	17.55863	557.41046	694.01044	
1752	17.510	-215.60178	28.70064	-114.48129	208.37094	30.64736	-119.57979	-252.38826	-10.60431	475.37555	175.04195	-3.04350	451.77225	3.20785	678.52948	-804.94977	-79.48635	541.93848	-196.92346	76.30989	543.04999	-189.20767	-130.81902	558.31610	684.88495	15.46910	556.24005	694.47968	
1753	17.520	-215.19112	28.77472	-114.64608	209.92632	31.46307	-118.52425	-252.28500	-11.48464	475.29202	175.00047	-3.98450	452.09222	2.81443	679.08392	-804.74274	-77.15852	542.78186	-196.61404	78.41684	543.84497	-188.55556	-130.82547	557.36298	685.19135	15.54538	554.99799	695.10364	
1754	17.530	-214.98448	29.20528	-114.65391	208.93010	30.72840	-118.80956	-252.08365	-12.12899	475.50970	175.21986	-4.63304	452.45917	1.74491	679.22144	-804.33643	-75.27343	543.84167	-196.40550	80.67886	544.67517	-187.89615	-130.38274	555.92505	685.63501	15.68689	553.64587	695.57538	
1755	17.540	-214.78560	29.59076	-114.50031	208.90233	30.77438	-118.50758	-252.07625	-12.62162	475.72586	175.33121	-5.52698	452.68457	-0.01103	679.08337	-803.77551	-73.07213	544.58356	-195.79674	82.71967	545.39923	-187.21117	-129.82130	555.53491	686.07123	16.05180	552.50330	696.17615	
1756	17.550	-214.68423	29.99736	-114.43562	208.84892	30.77999	-118.43510	-251.84738	-13.20063	475.84183	175.35454	-6.14826	452.91748	-2.18730	678.84607	-803.55261	-71.50479	545.34283	-195.51691	83.95906	545.97241	-186.81113	-128.83864	553.88141	686.28107	18.51190	551.05475	696.75330	
1757	17.560	-214.72050	30.21783	-113.66436	208.95465	30.97507	-118.22366	-251.61360	-13.74475	476.02783	175.69266	-6.89642	453.31436	-4.95071	678.38165	-803.21783	-70.26892	546.38843	-194.97409	85.52602	547.01996	-186.30334	-127.32797	552.79987	686.50653	19.97324	550.07367	697.19446	
1758	17.570	-214.86469	30.47507	-113.26628	208.92491	31.18241	-118.12450	-251.32985	-14.32407	476.27063	175.81558	-7.60925	453.41275	-7.61077	677.73267	-802.77460	-69.19478	547.10004	-194.74593	86.47203	547.83832	-185.91100	-126.28559	551.86255	687.33795	21.27383	549.16125	697.71631	
1759	17.580	-214.87529	30.50607	-113.00841	208.94566	31.37791	-118.07519	-251.20261	-14.66931	476.42020	175.87788	-8.14589	453.41074	-8.97042	677.56305	-800.94257	-68.43062	547.69257	-194.06296	87.22883	548.44824	-185.61676	-124.61620	551.61273	687.83008	22.95407	548.34766	697.99780	
1760	17.590	-214.77509	30.26266	-112.85365	209.01637	31.67204	-117.98197	-251.05196	-14.82038	476.35144	176.01859	-9.15808	453.58487	-13.15751	676.31348	-802.16254	-68.02178	548.18530	-193.62424	87.68805	549.04303	-185.29170	-123.63392	550.62384	688.51874	26.42836	547.17639	698.45868	
1761	17.600	-214.91763	30.23579	-112.59451	210.66267	33.49625	-116.74908	-250.91959	-15.18630	476.56021	176.17372	-9.78543	453.78586	-15.52489	675.75940	-801.91669	-67.70135	548.93304	-192.88628	87.95461	549.77991	-184.86349	-121.75268	549.69983	688.80969	28.40936	546.42126	698.96594	
1762	17.610	-215.28897	30.33499	-112.37374	209.38922	32.94650	-117.46655	-251.00497	-15.39435	476.74136	176.34329	-10.40474	453.79135	-17.39422	674.73669	-801.27789	-67.93111	549.57489	-192.51410	87.87058	550.68842	-184.91870	-119.58077	548.69257	689.70410	29.88942	545.61340	699.01038	
1763	17.620	-215.37054	30.50930	-112.29243	208.89110	33.17565	-117.54237	-250.94804	-15.95331	477.20749	176.18561	-11.11188	453.82913	-18.86316	674.14880	-801.02936	-68.34721	549.99957	-192.01015	89.23772	551.82849	-185.30101	-117.57856	547.65863	690.16132	31.99406	544.61511	699.34845	
1764	17.630	-216.08725	30.56540	-111.51897	207.50922	32.77092	-117.69685	-250.92255	-16.24187	477.60382	175.91435	-11.78225	453.86581	-19.98385	673.52405	-800.50665	-68.81880	550.39703	-191.41858	87.24743	552.62006	-185.13496	-115.69888	546.67358	691.14453	34.28504	543.74567	699.54840	
1765	17.640	-216.51665	30.59438	-111.17282	207.14998	33.00676	-117.57781	-250.92203	-16.55715	477.86368	175.73473	-12.48951	454.06830	-20.25837	672.87280	-800.31598	-69.25187	550.78339	-190.75661	86.67453	553.25500	-185.10916	-111.89964	545.08105	691.60242	36.31252	542.80511	699.77930	
1766	17.650	-216.84149	30.61238	-110.86217	206.84380	33.09513	-117.42894	-251.11433	-16.93584	478.15067	175.51268	-13.03689	454.06662	-18.60838	672.63568	-798.58026	-69.68417	551.05963	-190.16565	86.36859	553.69751	-184.98402	-109.79871	543.76282	692.07495	38.30517	541.78394	700.05908	
1767	17.660	-217.04671	30.70761	-110.70730	206.59135	33.11818	-117.59363	-251.39095	-17.23926	478.37805	175.07108	-13.45699	453.98599	-19.45420	671.95398	-799.83655	-70.12778	551.55566	-189.80598	85.95123	554.00122	-184.80295	-108.38557	543.05743	693.03802	39.57945	540.63879	700.18024	
